<mxfile host="app.diagrams.net" modified="2023-04-17T16:26:46.391Z" agent="Mozilla/5.0 (Macintosh; Intel Mac OS X 10_15_7) AppleWebKit/537.36 (KHTML, like Gecko) Chrome/112.0.0.0 Safari/537.36" etag="y0fuUcjhQ3SAk2tlmfnj" version="21.1.8" type="github">
  <diagram name="Page-1" id="03rPfN5AK590s_Yxt7ha">
    <mxGraphModel dx="681" dy="388" grid="1" gridSize="10" guides="1" tooltips="1" connect="1" arrows="1" fold="1" page="1" pageScale="1" pageWidth="850" pageHeight="1100" math="0" shadow="0">
      <root>
        <mxCell id="0" />
        <mxCell id="1" parent="0" />
        <mxCell id="oObCsjWg8IjYMYJt3Yt9-2" value="" style="rounded=0;whiteSpace=wrap;html=1;" vertex="1" parent="1">
          <mxGeometry x="110" y="30" width="500" height="290" as="geometry" />
        </mxCell>
        <mxCell id="oObCsjWg8IjYMYJt3Yt9-3" value="" style="rounded=0;whiteSpace=wrap;html=1;" vertex="1" parent="1">
          <mxGeometry x="110" y="30" width="500" height="50" as="geometry" />
        </mxCell>
        <mxCell id="oObCsjWg8IjYMYJt3Yt9-5" value="WEB LOGO" style="whiteSpace=wrap;html=1;aspect=fixed;" vertex="1" parent="1">
          <mxGeometry x="120" y="35" width="40" height="40" as="geometry" />
        </mxCell>
        <mxCell id="oObCsjWg8IjYMYJt3Yt9-9" value="" style="whiteSpace=wrap;html=1;aspect=fixed;" vertex="1" parent="1">
          <mxGeometry x="265" y="100" width="190" height="190" as="geometry" />
        </mxCell>
        <mxCell id="oObCsjWg8IjYMYJt3Yt9-16" style="edgeStyle=orthogonalEdgeStyle;rounded=0;orthogonalLoop=1;jettySize=auto;html=1;exitX=0.5;exitY=1;exitDx=0;exitDy=0;entryX=0.5;entryY=0;entryDx=0;entryDy=0;" edge="1" parent="1" source="oObCsjWg8IjYMYJt3Yt9-7" target="oObCsjWg8IjYMYJt3Yt9-15">
          <mxGeometry relative="1" as="geometry" />
        </mxCell>
        <mxCell id="oObCsjWg8IjYMYJt3Yt9-7" value="LOG IN" style="rounded=0;whiteSpace=wrap;html=1;" vertex="1" parent="1">
          <mxGeometry x="315" y="220" width="90" height="40" as="geometry" />
        </mxCell>
        <mxCell id="oObCsjWg8IjYMYJt3Yt9-10" value="WEB TITLE" style="rounded=0;whiteSpace=wrap;html=1;" vertex="1" parent="1">
          <mxGeometry x="160" y="40" width="120" height="35" as="geometry" />
        </mxCell>
        <mxCell id="oObCsjWg8IjYMYJt3Yt9-12" value="SPOTIFY USERNME" style="rounded=0;whiteSpace=wrap;html=1;" vertex="1" parent="1">
          <mxGeometry x="290" y="150" width="140" height="20" as="geometry" />
        </mxCell>
        <mxCell id="oObCsjWg8IjYMYJt3Yt9-13" value="WEB LOGO" style="whiteSpace=wrap;html=1;aspect=fixed;" vertex="1" parent="1">
          <mxGeometry x="340" y="100" width="40" height="40" as="geometry" />
        </mxCell>
        <mxCell id="oObCsjWg8IjYMYJt3Yt9-14" value="SPOTIFY PASSWORD" style="rounded=0;whiteSpace=wrap;html=1;" vertex="1" parent="1">
          <mxGeometry x="290" y="185" width="140" height="20" as="geometry" />
        </mxCell>
        <mxCell id="oObCsjWg8IjYMYJt3Yt9-15" value="" style="rounded=0;whiteSpace=wrap;html=1;" vertex="1" parent="1">
          <mxGeometry x="110" y="450" width="500" height="290" as="geometry" />
        </mxCell>
        <mxCell id="oObCsjWg8IjYMYJt3Yt9-19" value="" style="rounded=0;whiteSpace=wrap;html=1;" vertex="1" parent="1">
          <mxGeometry x="110" y="450" width="500" height="50" as="geometry" />
        </mxCell>
        <mxCell id="oObCsjWg8IjYMYJt3Yt9-17" value="WEB LOGO" style="whiteSpace=wrap;html=1;aspect=fixed;" vertex="1" parent="1">
          <mxGeometry x="120" y="455" width="40" height="40" as="geometry" />
        </mxCell>
        <mxCell id="oObCsjWg8IjYMYJt3Yt9-18" value="WEB TITLE" style="rounded=0;whiteSpace=wrap;html=1;" vertex="1" parent="1">
          <mxGeometry x="160" y="460" width="120" height="35" as="geometry" />
        </mxCell>
        <mxCell id="oObCsjWg8IjYMYJt3Yt9-20" value="LOG OUT" style="rounded=0;whiteSpace=wrap;html=1;" vertex="1" parent="1">
          <mxGeometry x="530" y="460" width="70" height="30" as="geometry" />
        </mxCell>
        <mxCell id="oObCsjWg8IjYMYJt3Yt9-21" value="SPOTIFY API" style="ellipse;shape=cloud;whiteSpace=wrap;html=1;" vertex="1" parent="1">
          <mxGeometry x="300" y="330" width="120" height="80" as="geometry" />
        </mxCell>
        <mxCell id="oObCsjWg8IjYMYJt3Yt9-30" style="edgeStyle=orthogonalEdgeStyle;rounded=0;orthogonalLoop=1;jettySize=auto;html=1;exitX=0;exitY=0.5;exitDx=0;exitDy=0;entryX=0.604;entryY=0.005;entryDx=0;entryDy=0;entryPerimeter=0;" edge="1" parent="1" source="oObCsjWg8IjYMYJt3Yt9-22" target="oObCsjWg8IjYMYJt3Yt9-28">
          <mxGeometry relative="1" as="geometry" />
        </mxCell>
        <mxCell id="oObCsjWg8IjYMYJt3Yt9-48" style="edgeStyle=orthogonalEdgeStyle;rounded=0;orthogonalLoop=1;jettySize=auto;html=1;entryX=0.373;entryY=-0.06;entryDx=0;entryDy=0;entryPerimeter=0;" edge="1" parent="1" source="oObCsjWg8IjYMYJt3Yt9-22" target="oObCsjWg8IjYMYJt3Yt9-44">
          <mxGeometry relative="1" as="geometry" />
        </mxCell>
        <mxCell id="oObCsjWg8IjYMYJt3Yt9-22" value="MOOD" style="rounded=1;whiteSpace=wrap;html=1;" vertex="1" parent="1">
          <mxGeometry x="265" y="570" width="80" height="20" as="geometry" />
        </mxCell>
        <mxCell id="oObCsjWg8IjYMYJt3Yt9-23" value="HOW SHOULD YOUR PLAYLIST BE GENERATED" style="text;html=1;strokeColor=none;fillColor=none;align=center;verticalAlign=middle;whiteSpace=wrap;rounded=0;" vertex="1" parent="1">
          <mxGeometry x="270" y="520" width="185" height="30" as="geometry" />
        </mxCell>
        <mxCell id="oObCsjWg8IjYMYJt3Yt9-42" style="edgeStyle=orthogonalEdgeStyle;rounded=0;orthogonalLoop=1;jettySize=auto;html=1;exitX=1;exitY=0.5;exitDx=0;exitDy=0;entryX=0.5;entryY=0;entryDx=0;entryDy=0;" edge="1" parent="1" source="oObCsjWg8IjYMYJt3Yt9-24" target="oObCsjWg8IjYMYJt3Yt9-38">
          <mxGeometry relative="1" as="geometry">
            <Array as="points">
              <mxPoint x="475" y="580" />
              <mxPoint x="475" y="520" />
              <mxPoint x="530" y="520" />
            </Array>
          </mxGeometry>
        </mxCell>
        <mxCell id="oObCsjWg8IjYMYJt3Yt9-50" style="edgeStyle=orthogonalEdgeStyle;rounded=0;orthogonalLoop=1;jettySize=auto;html=1;entryX=0.664;entryY=-0.017;entryDx=0;entryDy=0;entryPerimeter=0;" edge="1" parent="1" source="oObCsjWg8IjYMYJt3Yt9-24" target="oObCsjWg8IjYMYJt3Yt9-44">
          <mxGeometry relative="1" as="geometry">
            <Array as="points">
              <mxPoint x="430" y="690" />
              <mxPoint x="445" y="690" />
            </Array>
          </mxGeometry>
        </mxCell>
        <mxCell id="oObCsjWg8IjYMYJt3Yt9-24" value="GENRE" style="rounded=1;whiteSpace=wrap;html=1;" vertex="1" parent="1">
          <mxGeometry x="375" y="570" width="80" height="20" as="geometry" />
        </mxCell>
        <mxCell id="oObCsjWg8IjYMYJt3Yt9-51" style="edgeStyle=orthogonalEdgeStyle;rounded=0;orthogonalLoop=1;jettySize=auto;html=1;entryX=0.5;entryY=0;entryDx=0;entryDy=0;" edge="1" parent="1" source="oObCsjWg8IjYMYJt3Yt9-25" target="oObCsjWg8IjYMYJt3Yt9-44">
          <mxGeometry relative="1" as="geometry" />
        </mxCell>
        <mxCell id="oObCsjWg8IjYMYJt3Yt9-25" value="TOP 5" style="rounded=1;whiteSpace=wrap;html=1;" vertex="1" parent="1">
          <mxGeometry x="320" y="610" width="80" height="20" as="geometry" />
        </mxCell>
        <mxCell id="oObCsjWg8IjYMYJt3Yt9-28" value="" style="rounded=0;whiteSpace=wrap;html=1;" vertex="1" parent="1">
          <mxGeometry x="130" y="560" width="100" height="90" as="geometry" />
        </mxCell>
        <mxCell id="oObCsjWg8IjYMYJt3Yt9-31" value="SAD" style="rounded=0;whiteSpace=wrap;html=1;" vertex="1" parent="1">
          <mxGeometry x="130" y="590" width="100" height="30" as="geometry" />
        </mxCell>
        <mxCell id="oObCsjWg8IjYMYJt3Yt9-32" value="HAPPY" style="rounded=0;whiteSpace=wrap;html=1;" vertex="1" parent="1">
          <mxGeometry x="130" y="560" width="100" height="30" as="geometry" />
        </mxCell>
        <mxCell id="oObCsjWg8IjYMYJt3Yt9-33" value="DANCE" style="rounded=0;whiteSpace=wrap;html=1;" vertex="1" parent="1">
          <mxGeometry x="130" y="620" width="100" height="30" as="geometry" />
        </mxCell>
        <mxCell id="oObCsjWg8IjYMYJt3Yt9-37" value="" style="rounded=0;whiteSpace=wrap;html=1;" vertex="1" parent="1">
          <mxGeometry x="480" y="540" width="100" height="120" as="geometry" />
        </mxCell>
        <mxCell id="oObCsjWg8IjYMYJt3Yt9-38" value="EDM" style="rounded=0;whiteSpace=wrap;html=1;" vertex="1" parent="1">
          <mxGeometry x="480" y="540" width="100" height="30" as="geometry" />
        </mxCell>
        <mxCell id="oObCsjWg8IjYMYJt3Yt9-39" value="POP" style="rounded=0;whiteSpace=wrap;html=1;" vertex="1" parent="1">
          <mxGeometry x="480" y="570" width="100" height="30" as="geometry" />
        </mxCell>
        <mxCell id="oObCsjWg8IjYMYJt3Yt9-40" value="CLASSIC" style="rounded=0;whiteSpace=wrap;html=1;" vertex="1" parent="1">
          <mxGeometry x="480" y="600" width="100" height="30" as="geometry" />
        </mxCell>
        <mxCell id="oObCsjWg8IjYMYJt3Yt9-41" value="COUNTRY" style="rounded=0;whiteSpace=wrap;html=1;" vertex="1" parent="1">
          <mxGeometry x="480" y="630" width="100" height="30" as="geometry" />
        </mxCell>
        <mxCell id="oObCsjWg8IjYMYJt3Yt9-43" value="" style="rounded=0;whiteSpace=wrap;html=1;" vertex="1" parent="1">
          <mxGeometry x="112.5" y="790" width="500" height="290" as="geometry" />
        </mxCell>
        <mxCell id="oObCsjWg8IjYMYJt3Yt9-44" value="" style="rounded=0;whiteSpace=wrap;html=1;" vertex="1" parent="1">
          <mxGeometry x="112.5" y="790" width="500" height="50" as="geometry" />
        </mxCell>
        <mxCell id="oObCsjWg8IjYMYJt3Yt9-45" value="WEB LOGO" style="whiteSpace=wrap;html=1;aspect=fixed;" vertex="1" parent="1">
          <mxGeometry x="122.5" y="795" width="40" height="40" as="geometry" />
        </mxCell>
        <mxCell id="oObCsjWg8IjYMYJt3Yt9-46" value="WEB TITLE" style="rounded=0;whiteSpace=wrap;html=1;" vertex="1" parent="1">
          <mxGeometry x="162.5" y="800" width="120" height="35" as="geometry" />
        </mxCell>
        <mxCell id="oObCsjWg8IjYMYJt3Yt9-47" value="LOG OUT" style="rounded=0;whiteSpace=wrap;html=1;" vertex="1" parent="1">
          <mxGeometry x="532.5" y="800" width="70" height="30" as="geometry" />
        </mxCell>
        <mxCell id="oObCsjWg8IjYMYJt3Yt9-52" value="DONE!" style="text;html=1;strokeColor=none;fillColor=none;align=center;verticalAlign=middle;whiteSpace=wrap;rounded=0;" vertex="1" parent="1">
          <mxGeometry x="330" y="850" width="60" height="30" as="geometry" />
        </mxCell>
        <mxCell id="oObCsjWg8IjYMYJt3Yt9-53" value="" style="rounded=0;whiteSpace=wrap;html=1;" vertex="1" parent="1">
          <mxGeometry x="162.5" y="880" width="407.5" height="200" as="geometry" />
        </mxCell>
        <mxCell id="oObCsjWg8IjYMYJt3Yt9-54" value="SONG NAME" style="rounded=0;whiteSpace=wrap;html=1;" vertex="1" parent="1">
          <mxGeometry x="162.5" y="880" width="407.5" height="50" as="geometry" />
        </mxCell>
        <mxCell id="oObCsjWg8IjYMYJt3Yt9-57" value="SONG IMG" style="whiteSpace=wrap;html=1;aspect=fixed;" vertex="1" parent="1">
          <mxGeometry x="162.5" y="880" width="50" height="50" as="geometry" />
        </mxCell>
        <mxCell id="oObCsjWg8IjYMYJt3Yt9-60" value="SONG NAME" style="rounded=0;whiteSpace=wrap;html=1;" vertex="1" parent="1">
          <mxGeometry x="162.5" y="930" width="407.5" height="50" as="geometry" />
        </mxCell>
        <mxCell id="oObCsjWg8IjYMYJt3Yt9-61" value="SONG IMG" style="whiteSpace=wrap;html=1;aspect=fixed;" vertex="1" parent="1">
          <mxGeometry x="162.5" y="930" width="50" height="50" as="geometry" />
        </mxCell>
        <mxCell id="oObCsjWg8IjYMYJt3Yt9-62" value="SONG NAME" style="rounded=0;whiteSpace=wrap;html=1;" vertex="1" parent="1">
          <mxGeometry x="162.5" y="980" width="407.5" height="50" as="geometry" />
        </mxCell>
        <mxCell id="oObCsjWg8IjYMYJt3Yt9-63" value="SONG IMG" style="whiteSpace=wrap;html=1;aspect=fixed;" vertex="1" parent="1">
          <mxGeometry x="162.5" y="980" width="50" height="50" as="geometry" />
        </mxCell>
        <mxCell id="oObCsjWg8IjYMYJt3Yt9-64" value="SONG NAME" style="rounded=0;whiteSpace=wrap;html=1;" vertex="1" parent="1">
          <mxGeometry x="162.5" y="1030" width="407.5" height="50" as="geometry" />
        </mxCell>
        <mxCell id="oObCsjWg8IjYMYJt3Yt9-65" value="SONG IMG" style="whiteSpace=wrap;html=1;aspect=fixed;" vertex="1" parent="1">
          <mxGeometry x="162.5" y="1030" width="50" height="50" as="geometry" />
        </mxCell>
      </root>
    </mxGraphModel>
  </diagram>
</mxfile>
